<svg width="14" height="14" viewBox="0 0 14 14" fill="none" xmlns="http://www.w3.org/2000/svg">
<path fill-rule="evenodd" clip-rule="evenodd" d="M14 4.33094V4.36017L13.9999 6.2694V7.73055L14 9.64075V9.67588C14 9.83061 14 9.98533 13.999 10.1401C13.9982 10.2802 13.9966 10.4204 13.9928 10.5606C13.9846 10.8659 13.9666 11.1738 13.9124 11.4758C13.8573 11.7824 13.7675 12.0677 13.6258 12.3462C13.4867 12.6198 13.3049 12.8701 13.088 13.0871C12.8711 13.3043 12.6209 13.4862 12.3475 13.6255C12.0694 13.7672 11.7844 13.8571 11.4783 13.9122C11.1765 13.9665 10.8687 13.9845 10.5635 13.9927C10.4235 13.9965 10.2834 13.9981 10.1433 13.999C9.9889 13.9999 9.83447 13.9999 9.68004 13.9999H9.64443L7.73426 14H6.28651L4.37264 13.9999H4.34297C4.18624 14 4.02952 14 3.87279 13.999C3.73242 13.9981 3.5921 13.9965 3.45177 13.9927C3.14615 13.9845 2.83783 13.9665 2.5356 13.9123C2.22869 13.8572 1.94305 13.7673 1.6642 13.6255C1.39032 13.4862 1.13973 13.3042 0.922413 13.0871C0.705092 12.8701 0.522906 12.6197 0.383451 12.3461C0.2416 12.0677 0.151603 11.7825 0.0964702 11.4761C0.0421186 11.1741 0.0240921 10.866 0.0158348 10.5606C0.012046 10.4204 0.010415 10.2803 0.00956546 10.1401C0.00862289 9.98356 0.00862671 9.82706 0.00863052 9.67056L0.008631 9.64075L0 7.73055L5.09705e-05 6.27092L0 4.40047C0 4.31136 0.00245628 4.21068 0.00489224 4.11083C0.00700002 4.02443 0.00909257 3.93865 0.00956546 3.86154C0.010415 3.72154 0.012046 3.58156 0.0158178 3.44159C0.0240921 3.1367 0.0420846 2.82916 0.0963852 2.52765C0.151535 2.22151 0.241549 1.93656 0.383519 1.65842C0.522957 1.38521 0.705109 1.13522 0.922413 0.918458C1.13975 0.701646 1.39041 0.519935 1.66434 0.380819C1.94301 0.239307 2.22852 0.149531 2.53524 0.0945506C2.83761 0.0403178 3.14604 0.0223422 3.45177 0.0141019C3.5921 0.0103131 3.7324 0.00871599 3.87277 0.00784949C4.02749 0.00690289 4.18221 0.00690852 4.33694 0.00691416L4.37264 0.00691502L6.26937 0H7.71354L9.64443 0.00691502L9.68007 0.00691416C9.83449 0.00690852 9.98891 0.00690289 10.1433 0.00784949C10.2834 0.00871599 10.4235 0.0103131 10.5635 0.0141019C10.8685 0.0223422 11.1763 0.0403008 11.4779 0.0944657C11.7842 0.149463 12.0693 0.239273 12.3476 0.380887C12.621 0.519986 12.8711 0.70168 13.088 0.918458C13.3049 1.13524 13.4867 1.38528 13.6259 1.65854C13.7675 1.93655 13.8573 2.22132 13.9123 2.5273C13.9666 2.82892 13.9846 3.13657 13.9928 3.44159C13.9966 3.58154 13.9982 3.72152 13.999 3.86154C14 4.01801 14 4.17448 14 4.33094ZM2.67542 3.78605C2.67542 3.32139 3.0521 2.9447 3.51676 2.9447H10.4831C10.9478 2.9447 11.3245 3.32139 11.3245 3.78605C11.3245 4.25071 10.9478 4.62739 10.4831 4.62739H3.51676C3.0521 4.62739 2.67542 4.25071 2.67542 3.78605ZM4.47601 7.77404C4.47601 7.30938 4.8527 6.93269 5.31736 6.93269H8.68274C9.14741 6.93269 9.52409 7.30938 9.52409 7.77404C9.52409 8.2387 9.14741 8.61539 8.68274 8.61539H5.31736C4.8527 8.61539 4.47601 8.2387 4.47601 7.77404ZM5.31736 9.62499C4.8527 9.62499 4.47601 10.0017 4.47601 10.4663C4.47601 10.931 4.8527 11.3077 5.31736 11.3077H8.68274C9.14741 11.3077 9.52409 10.931 9.52409 10.4663C9.52409 10.0017 9.14741 9.62499 8.68274 9.62499H5.31736Z" fill="white"/>
</svg>
